#!OML:ASF F:\VICON\USERDATA\INSTALL\rory3\rory3.ASF
:FULLY-SPECIFIED
:DEGREES
9
root 0.5929617084702826 18.177785287790314 -21.755485489488002 -3.600459386772279 -1.6143617564481476 -5.098232630610156
lfemur -17.85029351984364 2.921059362960609 -15.514206169270212
ltibia 69.64557907373762
lfoot -2.048944397047844 -5.814922909773377
ltoes -5.130737678491039
rfemur -9.60944199067379 5.367786781747185 31.412691573635463
rtibia 27.67310497213787
rfoot -11.319496865756046 -4.595473237990285
rtoes 6.282445459584862
lowerback 10.364294039048179 0.2860923385581312 3.5766246712087826
upperback 0.7932542625976556 0.9602126317483702 3.1561748187764227
thorax -4.9864498783055105 0.4284759559117499 1.1442589199750746
lowerneck -16.794897718363853 -3.2019589701168356 -1.9640799426182196
upperneck 22.317184507783224 -3.9541344437137305 0.030677825113649804
head 9.90673507351176 -1.9943084151185668 -0.19079033364420697
lclavicle -1.95324060778474e-15 9.067693161256902e-16
lhumerus -30.339099543951484 -0.17226629208030642 85.19738832322386
lradius 26.689596994503948
lwrist 5.367887327754117
lhand -27.46169855532799 21.592305046223252
lfingers 7.12502
lthumb -0.8660215549912753 51.57030502598837
rclavicle -1.95324060778474e-15 9.067693161256902e-16
rhumerus -27.699001315978084 -18.219699546517788 -77.51660552060265
rradius 22.59140683833118
rwrist 7.263237242597634
rhand -16.674407298098068 12.747138268272172
rfingers 7.12502
rthumb 9.549472701658933 -17.01646174306638
10
root 0.5744551509888365 18.120888479052468 -21.113185776303993 -3.3774511467695874 -2.155840086784972 -5.728931080036814
lfemur -22.48229038806871 2.851849628293221 -14.831107152700781
ltibia 67.3416803422869
lfoot -5.625420173652256 -3.7903057720453033
ltoes -3.8607795179590854
rfemur -8.176012960294178 6.750841855262424 32.767489580354706
rtibia 28.98680422636214
rfoot -13.806294269373588 -7.417797980778227
rtoes 5.434376809371644
lowerback 10.8882874846914 0.46901924737525824 4.140093379992044
upperback -0.11949289020009529 1.3554191123847321 3.208464290454996
thorax -6.231861520997651 0.5868786385045945 0.8234392443672618
lowerneck -13.480442515587034 -3.0007660310231294 -2.223736054648661
upperneck 21.321496331587486 -3.731669213379422 0.25848843253377474
head 8.948485151232285 -1.9039534435430334 0.02514233894057219
lclavicle -1.953240639245478e-15 9.067692393201503e-16
lhumerus -33.92919388354355 -0.2131132145891017 85.2691879171574
lradius 27.520295225731303
lwrist 6.2262445059604055
lhand -26.478203700823897 22.7472018798459
lfingers 7.12502
lthumb 0.08390969896638578 52.72700185517237
rclavicle -1.953240639245478e-15 9.067692393201503e-16
rhumerus -28.348299513693995 -14.212406203381818 -78.70030148074996
rradius 24.92819971328866
rwrist 4.713383578124742
rhand -16.91750520874003 12.063440990643388
rfingers 7.12502
rthumb 9.3149047907886 -17.71075896986437
11
root 0.5777800714851787 18.048992511596392 -20.452686071247058 -2.8738951208704937 -2.608198691924896 -6.245669809633679
lfemur -26.153287906042454 2.5240008851823714 -14.286707936450753
ltibia 62.414783055084726
lfoot -7.661597769166941 -1.2917993042711116
ltoes -4.227428986886484
rfemur -6.5806140394765364 7.085800662128839 33.6709882510595
rtibia 29.729903804510933
rfoot -16.97459096146035 -8.053316796982067
rtoes 2.611541302199018
lowerback 10.699689843759506 0.9160255809241684 5.224130895865857
upperback 0.30228962785170105 2.0228465464729286 2.8172882428125297
thorax -5.61776550361129 0.8920611003559198 -0.29468213985840064
lowerneck -15.507015125014547 -3.1419410764567752 -1.7760527580496146
upperneck 21.462194660793813 -4.053332316906356 0.5176860276461993
head 9.372041856558408 -1.9773593583655205 -0.03504477442839707
lclavicle -1.9532406114950966e-15 9.06769220444197e-16
lhumerus -33.77039413391896 -1.2597562289896411 85.25738798389256
lradius 27.34419560069322
lwrist 6.272994352273306
lhand -26.397004125647758 21.04270655305587
lfingers 7.12502
lthumb 0.16230287428870582 51.02230652819912
rclavicle -1.9532406114950966e-15 9.06769220444197e-16
rhumerus -26.319805144270408 -12.515109022910021 -80.31169598119884
rradius 26.921693634988305
rwrist 2.429729252236206
rhand -19.143886073623854 21.762102372153283
rfingers 7.12502
rthumb 7.166223927561914 -8.096597371302932
12
root 0.5899807797485991 17.978796448795045 -19.80268636150143 -2.4800582290599866 -2.9298777000189125 -6.881138247333311
lfemur -28.363586411620588 1.909153242352652 -13.455509133094726
ltibia 54.92328717997552
lfoot -8.44825684021547 2.032745995703152
ltoes -0.7747059879753655
rfemur -4.427805495709833 6.721861958489706 34.40248717482322
rtibia 29.510503929062338
rfoot -18.454589416243227 -7.607937626600542
rtoes 4.605568128504242
lowerback 10.853787916228248 1.0396278436205484 6.106388874127565
upperback 0.3768575979298018 2.301325475866093 2.7929584886350654
thorax -5.579996363592918 1.006506148536652 -0.8568498191451223
lowerneck -15.985308660536695 -3.089352922048534 -1.8316019262822691
upperneck 21.255297117703623 -3.930684946472127 0.4325291462893239
head 9.386441404582811 -1.931921887046438 -0.045592426275922776
lclavicle -1.9532406259831456e-15 9.067692559180084e-16
lhumerus -34.270193345898605 -0.7795781399414561 85.204788281373
lradius 26.851096650629167
lwrist 5.679416303622758
lhand -27.137300252530707 23.579799597115112
lfingers 7.12502
lthumb -0.5526922523834297 53.5587995749919
rclavicle -1.9532406259831456e-15 9.067692559180084e-16
rhumerus -24.900209084702404 -9.94059329966236 -81.38509231778927
rradius 28.608488491834528
rwrist 0.2773956000600313
rhand -19.50538296665992 22.26790035814808
rfingers 7.12502
rthumb 6.817277035383874 -7.602339345496835
13
root 0.6087413311566832 17.93549887729507 -19.13468665979355 -1.9142226946753196 -3.576475706216354 -7.6119164507137
lfemur -29.488485651056294 1.093506369336374 -12.261010852766534
ltibia 44.85949272119923
lfoot -8.844266372574968 5.440471178083094
ltoes 6.987764768491289
rfemur -1.6634473656161646 7.02085089348191 35.26908589981801
rtibia 27.843504875403283
rfoot -19.070788772889973 -7.72562740737696
rtoes 4.998527503069771
lowerback 10.619490846926329 1.469795277615693 7.183086406821334
upperback 0.5308624055435637 2.960852940325566 2.629760137555634
thorax -5.185905336819268 1.3159835746675168 -1.7124492871009878
lowerneck -16.3859032462155 -3.1278515709307793 -1.4081182673291326
upperneck 20.998700164794286 -4.060712158682177 0.33580541687759463
head 9.36014223006602 -1.9674399104014948 -0.16950203631941016
lclavicle -1.9532406260714944e-15 9.067692139353183e-16
lhumerus -34.6508927456598 0.21661997015873358 84.57649183473734
lradius 26.591097204235627
lwrist 4.273470925577261
lhand -26.745002304974065 24.537396971673125
lfingers 7.12502
lthumb -0.1738233048221055 54.51709694804198
rclavicle -1.9532406260714944e-15 9.067692139353183e-16
rhumerus -23.49471298599654 -8.763495255042436 -82.11988980998852
rradius 30.161983755120417
rwrist -1.1463118625066882
rhand -19.612282047892442 21.912601772889182
rfingers 7.12502
rthumb 6.7141379539703685 -7.960957913081877
14
root 0.6378786344416225 17.865302814493727 -18.431886973625538 -0.996140940243532 -4.114504047191316 -8.010825469995117
lfemur -29.599685575872073 -0.4795555999420593 -11.052712592305648
ltibia 33.55429894594949
lfoot -8.716256523739482 9.071216045172326
ltoes -6.412455821989267
rfemur 0.7449180052831661 6.948391151585742 35.56398546593957
rtibia 26.420005683511512
rfoot -20.341187446508933 -7.421837973252836
rtoes 3.784649435079125
lowerback 10.026398265607638 1.6978239173951102 7.5184556383059515
upperback 0.03826821515808543 3.2836716992551183 2.7287591372913145
thorax -5.337281890062087 1.4526124383493717 -1.824508824502252
lowerneck -15.429916167061888 -3.032374921702811 -1.7260235071642924
upperneck 20.74330319763511 -3.8581465017000194 0.33988836324294086
head 9.100710373159702 -1.9038234507773755 -0.07137997509131122
lclavicle -1.953240603698929e-15 9.067692321603099e-16
lhumerus -36.00079061731111 1.8303879086595354 84.19299400362995
lradius 25.509799506599734
lwrist 4.724919441469462
lhand -27.05650067526184 22.112403620270477
lfingers 7.12502
lthumb -0.47467567502097174 52.09160359696928
rclavicle -1.953240603698929e-15 9.067692321603099e-16
rhumerus -23.297513533371273 -6.842988445363575 -82.37798892911837
rradius 30.815781761645248
rwrist -1.2416316256691742
rhand -19.590382236115154 23.244296470297776
rfingers 7.12502
rthumb 6.7352977655149635 -6.628593234889691
15
root 0.6672059331834956 17.80220635348568 -17.720287291387116 -0.35304301561928453 -5.371350171672061 -8.959753137054632
lfemur -28.043186628248527 -3.1148074970530804 -8.169656742926827
ltibia 21.550905555135298
lfoot -7.230398278362628 11.619682442316437
ltoes -1.4394330251529759
rfemur 3.8540089021878003 7.2882599409626545 36.44868416430428
rtibia 24.358706853693025
rfoot -20.477287304411632 -7.2961382073968055
rtoes 0.12967625233752855
lowerback 9.584993786902725 2.1835010202678364 8.569353230121562
upperback 0.12165754509727 3.99189897648912 2.7530788915698183
thorax -4.874662423641653 1.7942895966807435 -2.4458162596511044
lowerneck -16.14120655346562 -3.1062223300132996 -1.736113356083599
upperneck 21.11029883955922 -3.9826038333285907 0.4811375077571402
head 9.364162103889498 -1.9415713500356364 -0.052416201039623356
lclavicle -1.9532405901716574e-15 9.067692552670632e-16
lhumerus -36.303690139737355 3.24330522819654 83.48069803205813
lradius 24.624901390778035
lwrist 3.817452424708592
lhand -26.328104486120218 20.922506882606964
lfingers 7.12502
lthumb 0.2288525137707632 50.902206857424495
rclavicle -1.9532405901716574e-15 9.067692552670632e-16
rhumerus -21.964517233424694 -6.264309406657757 -82.7824875485993
rradius 30.786681850372865
rwrist -1.2026417225459545
rhand -20.125977632823645 22.763298385553817
rfingers 7.12502
rthumb 6.218202370916133 -7.125461250270818
